<?xml version="1.0" standalone="no"?>
<!DOCTYPE svg PUBLIC "-//W3C//DTD SVG 20010904//EN"
 "http://www.w3.org/TR/2001/REC-SVG-20010904/DTD/svg10.dtd">
<svg version="1.0" xmlns="http://www.w3.org/2000/svg"
 width="366.000000pt" height="366.000000pt" viewBox="0 0 366.000000 366.000000"
 preserveAspectRatio="xMidYMid meet">

<g transform="translate(0.000000,366.000000) scale(0.100000,-0.100000)"
fill="#000000" stroke="none">
<path d="M1605 3564 c-560 -76 -1040 -410 -1307 -912 -32 -59 -58 -111 -58
-117 0 -5 19 24 41 65 339 624 1020 976 1711 885 189 -25 448 -102 448 -134 0
-33 -50 -220 -90 -336 -100 -289 -273 -583 -468 -798 l-62 -67 0 -145 c0 -80
2 -145 4 -145 2 0 42 18 88 40 271 130 550 98 745 -83 113 -106 171 -220 194
-381 22 -159 -12 -299 -104 -428 -127 -177 -325 -275 -577 -285 -205 -9 -391
35 -623 145 l-119 56 6 36 c26 150 36 1637 11 1633 -5 -1 -44 -8 -85 -17 -85
-17 -242 -34 -410 -44 l-115 -7 0 -30 c0 -30 0 -30 72 -36 88 -8 140 -33 165
-80 17 -32 18 -60 16 -393 l-3 -360 -95 -38 c-235 -96 -563 -168 -768 -168
-37 0 -73 -4 -80 -8 -17 -12 41 -190 109 -332 236 -495 684 -842 1239 -961 91
-20 135 -23 330 -23 197 -1 239 2 339 22 588 119 1071 518 1290 1067 90 226
126 435 118 700 -5 205 -27 334 -84 505 -263 787 -1061 1286 -1878 1174z"/>
<path d="M1159 3206 c-99 -35 -159 -124 -159 -235 1 -148 98 -246 245 -245
147 1 245 99 245 247 0 174 -167 292 -331 233z"/>
<path d="M2030 1827 c-164 -46 -223 -182 -223 -507 1 -236 36 -366 119 -439
57 -50 112 -65 216 -59 168 9 238 84 274 292 21 118 14 401 -11 491 -31 112
-81 178 -159 210 -52 22 -160 28 -216 12z"/>
</g>
</svg>
